<svg width="116" height="116" viewBox="0 0 116 116" fill="none" xmlns="http://www.w3.org/2000/svg">
<circle cx="58" cy="58" r="57.5" stroke="#555555"/>
<path d="M74.3363 56.962L74.8029 56.7823L74.3363 56.962ZM74.3363 59.038L73.8697 58.8583L74.3363 59.038ZM42.1302 57.1417C44.5844 50.7698 50.7649 46.25 57.9999 46.25V45.25C50.3377 45.25 43.7949 50.0373 41.197 56.7823L42.1302 57.1417ZM57.9999 46.25C65.2349 46.25 71.4155 50.7698 73.8697 57.1417L74.8029 56.7823C72.205 50.0373 65.6622 45.25 57.9999 45.25V46.25ZM73.8697 58.8583C71.4155 65.2302 65.2349 69.75 57.9999 69.75V70.75C65.6622 70.75 72.205 65.9627 74.8029 59.2177L73.8697 58.8583ZM57.9999 69.75C50.7649 69.75 44.5844 65.2302 42.1302 58.8583L41.197 59.2177C43.7949 65.9627 50.3377 70.75 57.9999 70.75V69.75ZM73.8697 57.1417C74.0824 57.6938 74.0824 58.3062 73.8697 58.8583L74.8029 59.2177C75.1046 58.4343 75.1046 57.5657 74.8029 56.7823L73.8697 57.1417ZM41.197 56.7823C40.8953 57.5657 40.8953 58.4343 41.197 59.2177L42.1302 58.8583C41.9175 58.3062 41.9175 57.6938 42.1302 57.1417L41.197 56.7823Z" fill="#FFE070"/>
<circle cx="58" cy="58" r="5.25" stroke="#FFE070" stroke-linecap="round" stroke-linejoin="round"/>
</svg>
