<svg width="116" height="116" viewBox="0 0 116 116" fill="none" xmlns="http://www.w3.org/2000/svg">
<circle cx="58" cy="58" r="57.5" stroke="#555555"/>
<path d="M56.3356 45.6223C56.8595 44.01 59.1405 44.01 59.6643 45.6223L61.929 52.5922C62.1633 53.3132 62.8352 53.8014 63.5933 53.8014L70.9219 53.8014C72.6172 53.8014 73.322 55.9708 71.9505 56.9672L66.0216 61.2748C65.4082 61.7204 65.1516 62.5103 65.3859 63.2314L67.6505 70.2012C68.1744 71.8135 66.329 73.1543 64.9575 72.1578L59.0286 67.8502C58.4153 67.4046 57.5847 67.4046 56.9714 67.8502L51.0425 72.1578C49.671 73.1542 47.8256 71.8135 48.3495 70.2012L50.6141 63.2314C50.8484 62.5103 50.5918 61.7204 49.9784 61.2748L44.0495 56.9672C42.678 55.9708 43.3828 53.8014 45.0781 53.8014L52.4067 53.8014C53.1648 53.8014 53.8367 53.3132 54.071 52.5922L56.3356 45.6223Z" stroke="#FFE070" stroke-linecap="round" stroke-linejoin="round"/>
</svg>
