<svg width="58" height="58" viewBox="0 0 58 58" fill="none" xmlns="http://www.w3.org/2000/svg">
<path d="M14.5003 12.0837C14.5003 13.4183 13.4183 14.5003 12.0837 14.5003C10.749 14.5003 9.66699 13.4183 9.66699 12.0837C9.66699 10.749 10.749 9.66699 12.0837 9.66699C13.4183 9.66699 14.5003 10.749 14.5003 12.0837Z" stroke="#FFE070" stroke-width="2" stroke-linecap="round" stroke-linejoin="round"/>
<path d="M14.5003 29.0003C14.5003 30.335 13.4183 31.417 12.0837 31.417C10.749 31.417 9.66699 30.335 9.66699 29.0003C9.66699 27.6656 10.749 26.5837 12.0837 26.5837C13.4183 26.5837 14.5003 27.6656 14.5003 29.0003Z" stroke="#FFE070" stroke-width="2" stroke-linecap="round" stroke-linejoin="round"/>
<path d="M31.417 12.0837C31.417 13.4183 30.335 14.5003 29.0003 14.5003C27.6656 14.5003 26.5837 13.4183 26.5837 12.0837C26.5837 10.749 27.6656 9.66699 29.0003 9.66699C30.335 9.66699 31.417 10.749 31.417 12.0837Z" stroke="#FFE070" stroke-width="2" stroke-linecap="round" stroke-linejoin="round"/>
<path d="M31.417 29.0003C31.417 30.335 30.335 31.417 29.0003 31.417C27.6656 31.417 26.5837 30.335 26.5837 29.0003C26.5837 27.6656 27.6656 26.5837 29.0003 26.5837C30.335 26.5837 31.417 27.6656 31.417 29.0003Z" stroke="#FFE070" stroke-width="2" stroke-linecap="round" stroke-linejoin="round"/>
<path d="M31.417 45.917C31.417 47.2517 30.335 48.3337 29.0003 48.3337C27.6656 48.3337 26.5837 47.2517 26.5837 45.917C26.5837 44.5823 27.6656 43.5003 29.0003 43.5003C30.335 43.5003 31.417 44.5823 31.417 45.917Z" stroke="#FFE070" stroke-width="2" stroke-linecap="round" stroke-linejoin="round"/>
<path d="M48.3337 12.0837C48.3337 13.4183 47.2517 14.5003 45.917 14.5003C44.5823 14.5003 43.5003 13.4183 43.5003 12.0837C43.5003 10.749 44.5823 9.66699 45.917 9.66699C47.2517 9.66699 48.3337 10.749 48.3337 12.0837Z" stroke="#FFE070" stroke-width="2" stroke-linecap="round" stroke-linejoin="round"/>
<path d="M48.3337 29.0003C48.3337 30.335 47.2517 31.417 45.917 31.417C44.5823 31.417 43.5003 30.335 43.5003 29.0003C43.5003 27.6656 44.5823 26.5837 45.917 26.5837C47.2517 26.5837 48.3337 27.6656 48.3337 29.0003Z" stroke="#FFE070" stroke-width="2" stroke-linecap="round" stroke-linejoin="round"/>
</svg>
