<svg width="90" height="90" viewBox="0 0 90 90" fill="none" xmlns="http://www.w3.org/2000/svg">
<circle cx="45" cy="45" r="44.5" stroke="#555555"/>
<path d="M45 24.6875V29.375" stroke="white" stroke-width="2" stroke-linecap="round" stroke-linejoin="round"/>
<path d="M45 60.625V65.3125" stroke="white" stroke-width="2" stroke-linecap="round" stroke-linejoin="round"/>
<path d="M55.9375 37.1875C55.9375 36.1615 55.7354 35.1456 55.3428 34.1978C54.9502 33.2499 54.3747 32.3887 53.6493 31.6632C52.9238 30.9378 52.0626 30.3623 51.1147 29.9697C50.1669 29.5771 49.1509 29.375 48.125 29.375H41.0937C39.0217 29.375 37.0346 30.1981 35.5695 31.6632C34.1043 33.1284 33.2812 35.1155 33.2812 37.1875C33.2812 39.2595 34.1043 41.2466 35.5695 42.7118C37.0346 44.1769 39.0217 45 41.0937 45H49.6875C51.7595 45 53.7466 45.8231 55.2118 47.2882C56.6769 48.7534 57.5 50.7405 57.5 52.8125C57.5 54.8845 56.6769 56.8716 55.2118 58.3368C53.7466 59.8019 51.7595 60.625 49.6875 60.625H40.3125C38.2405 60.625 36.2534 59.8019 34.7882 58.3368C33.3231 56.8716 32.5 54.8845 32.5 52.8125" stroke="white" stroke-width="2" stroke-linecap="round" stroke-linejoin="round"/>
</svg>
