<svg width="30" height="30" viewBox="0 0 30 30" fill="none" xmlns="http://www.w3.org/2000/svg">
<circle opacity="0.2" cx="15" cy="15" r="14.5" stroke="#121212"/>
<path fill-rule="evenodd" clip-rule="evenodd" d="M15.9666 10.2535H18.0133C20.4733 10.2535 21.6733 11.5668 21.6666 14.2602V17.5068C21.6666 20.0802 20.0799 21.6668 17.4999 21.6668H12.4933C9.92659 21.6668 8.33325 20.0802 8.33325 17.5002V12.4935C8.33325 9.73349 9.55992 8.33349 11.9799 8.33349H13.0333C13.6539 8.32682 14.2333 8.61349 14.6133 9.10015L15.1999 9.88015C15.3866 10.1135 15.6666 10.2535 15.9666 10.2535ZM11.9133 17.1935H18.0866C18.3599 17.1935 18.5799 16.9668 18.5799 16.6935C18.5799 16.4135 18.3599 16.1935 18.0866 16.1935H11.9133C11.6333 16.1935 11.4133 16.4135 11.4133 16.6935C11.4133 16.9668 11.6333 17.1935 11.9133 17.1935Z" fill="#121212"/>
</svg>
