<svg width="90" height="90" viewBox="0 0 90 90" fill="none" xmlns="http://www.w3.org/2000/svg">
<circle cx="45" cy="45" r="44.5" stroke="#555555"/>
<path d="M38.2031 43.9844C37.5258 42.3227 37.1808 40.5444 37.1875 38.75C37.1875 35.9687 38.0123 33.2499 39.5575 30.9373C41.1027 28.6247 43.2989 26.8223 45.8685 25.758C48.4381 24.6936 51.2656 24.4151 53.9935 24.9577C56.7213 25.5003 59.227 26.8396 61.1937 28.8063C63.1604 30.773 64.4997 33.2787 65.0423 36.0066C65.5849 38.7344 65.3064 41.5619 64.2421 44.1315C63.1777 46.7011 61.3753 48.8973 59.0627 50.4425C56.7501 51.9878 54.0313 52.8125 51.25 52.8125C49.4556 52.8193 47.6773 52.4742 46.0156 51.7969V51.7969L43.4375 54.375H38.75V59.0625H34.0625V63.75H26.25V55.9375L38.2031 43.9844Z" stroke="white" stroke-width="2" stroke-linecap="round" stroke-linejoin="round"/>
<path d="M55.1562 37.1875C56.4507 37.1875 57.5 36.1382 57.5 34.8438C57.5 33.5493 56.4507 32.5 55.1562 32.5C53.8618 32.5 52.8125 33.5493 52.8125 34.8438C52.8125 36.1382 53.8618 37.1875 55.1562 37.1875Z" fill="white"/>
</svg>
