<svg width="90" height="90" viewBox="0 0 90 90" fill="none" xmlns="http://www.w3.org/2000/svg">
<circle cx="45" cy="45" r="44.5" stroke="#555555"/>
<path d="M60.625 37.1875H29.375C28.5121 37.1875 27.8125 37.8871 27.8125 38.75V60.625C27.8125 61.4879 28.5121 62.1875 29.375 62.1875H60.625C61.4879 62.1875 62.1875 61.4879 62.1875 60.625V38.75C62.1875 37.8871 61.4879 37.1875 60.625 37.1875Z" stroke="white" stroke-width="2" stroke-linecap="round" stroke-linejoin="round"/>
<path d="M37.9688 37.1875V30.1562C37.9688 28.2914 38.7095 26.503 40.0282 25.1844C41.3468 23.8658 43.1352 23.125 45 23.125C46.8648 23.125 48.6532 23.8658 49.9718 25.1844C51.2905 26.503 52.0312 28.2914 52.0312 30.1562" stroke="white" stroke-width="2" stroke-linecap="round" stroke-linejoin="round"/>
<path d="M45 52.0312C46.2944 52.0312 47.3438 50.9819 47.3438 49.6875C47.3438 48.3931 46.2944 47.3438 45 47.3438C43.7056 47.3438 42.6562 48.3931 42.6562 49.6875C42.6562 50.9819 43.7056 52.0312 45 52.0312Z" fill="white"/>
</svg>
