<svg width="80" height="30" viewBox="0 0 80 30" fill="none" xmlns="http://www.w3.org/2000/svg">
<g clip-path="url(#clip0_105_616)">
<path d="M40.7115 0.121094L38.7556 12.1809L38.5658 13.3528L38.0023 16.8266L37.8326 17.873L35.8816 29.9018L31.6819 29.916L33.6344 17.873L33.8042 16.8266L34.3677 13.3528L34.5583 12.1809L35.8209 4.3927L31.6211 4.40693L32.3111 0.149554L40.7115 0.121094Z" fill="white"/>
<path d="M33.1065 13.3519L32.543 16.8258H6.58184L6.41538 17.8721L5.13946 25.7214L13.1504 25.6988L14.4188 17.8763H18.6169L17.3502 25.6846C17.1621 26.8476 16.5794 27.8493 15.6023 28.6897C14.6252 29.5301 13.5776 29.9509 12.4596 29.952L4.44865 29.9788C3.30063 29.9833 2.38177 29.5678 1.69207 28.7324C1.00237 27.897 0.752678 26.8981 0.942998 25.7356L2.21392 17.8721L2.38038 16.8258H0L0.563468 13.3519H2.94718L3.13778 12.18L4.38623 4.46971C4.56934 3.33575 5.14418 2.34102 6.11076 1.48553C7.07734 0.630035 8.13325 0.201173 9.2785 0.198941L17.2894 0.167969C18.4374 0.167969 19.3554 0.59153 20.0435 1.43865C20.7315 2.28577 20.9834 3.27771 20.7992 4.41446L19.5399 12.18H15.3426L16.5994 4.42869L8.58769 4.45548L7.33507 12.18L7.14531 13.3519H33.1065Z" fill="white"/>
<path d="M79.1894 1.26736C78.5014 0.418565 77.5836 -0.00387952 76.4362 2.68434e-05L68.4244 0.0268133C67.2775 0.0312777 66.2216 0.460419 65.2567 1.31424C64.2918 2.16806 63.7175 3.16278 63.5338 4.29842L62.2554 12.1795L62.0656 13.3514H59.6611L59.0977 16.8253H61.5022L61.3357 17.8716L60.0873 25.5644C59.8992 26.7279 60.1489 27.7268 60.8363 28.5611C61.5238 29.3954 62.4424 29.8109 63.5921 29.8075L71.6038 29.7807C72.7235 29.7768 73.7714 29.3546 74.7474 28.5142C75.7234 27.6738 76.306 26.6721 76.4953 25.5091L79.9443 4.24736C80.1296 3.10949 79.878 2.11616 79.1894 1.26736ZM72.2963 25.5233L64.2854 25.5501L65.5338 17.8716L65.7003 16.8253H71.7486L72.3121 13.3514H66.2638L66.4535 12.1795L67.7345 4.28419L75.7437 4.2574L72.2963 25.5233Z" fill="white"/>
<path d="M59.3056 1.45877C58.6176 0.609972 57.6998 0.187527 56.5523 0.191433L48.5406 0.21822C47.3937 0.222684 46.3378 0.651825 45.3729 1.50564C44.408 2.35946 43.8337 3.35419 43.65 4.48982L42.4015 12.1784L42.211 13.3503H39.8447L39.2812 16.8242H41.6491L41.4827 17.8705L40.2034 25.7558C40.0153 26.9193 40.2664 27.9182 40.9567 28.7525C41.6469 29.5868 42.5658 30.0023 43.7133 29.9989L51.725 29.9721C52.8442 29.9682 53.892 29.546 54.8686 28.7056C55.8452 27.8652 56.4278 26.8635 56.6164 25.7005L57.8832 17.8705L58.0497 16.8242L58.6131 13.3503L58.8029 12.1784L60.0622 4.43541C60.2464 3.29978 59.9942 2.30756 59.3056 1.45877ZM54.6081 12.1784L54.4175 13.3503L53.854 16.8242L53.6876 17.8705L52.415 25.7147L44.4041 25.7415L45.6808 17.873L45.8473 16.8267H52.8478L53.4112 13.3528H46.4116L46.6013 12.1809L47.8498 4.47978L55.8607 4.45299L54.6081 12.1784Z" fill="white"/>
</g>
<defs>
<clipPath id="clip0_105_616">
<rect width="80" height="30" fill="white"/>
</clipPath>
</defs>
</svg>
