<svg width="88" height="33" viewBox="0 0 88 33" fill="none" xmlns="http://www.w3.org/2000/svg">
<g clip-path="url(#clip0_105_110)">
<path d="M44.7826 0.132324L42.6311 13.3981L42.4224 14.6872L41.8026 18.5084L41.6158 19.6594L39.4698 32.8911L34.85 32.9067L36.9979 19.6594L37.1846 18.5084L37.8045 14.6872L38.0141 13.3981L39.403 4.83109L34.7832 4.84674L35.5422 0.163631L44.7826 0.132324Z" fill="#FFE070"/>
<path d="M36.4171 14.6869L35.7973 18.5082H7.24002L7.05692 19.6592L5.65341 28.2934L14.4654 28.2685L15.8607 19.6638H20.4786L19.0852 28.2528C18.8783 29.5321 18.2374 30.634 17.1626 31.5585C16.0877 32.4829 14.9354 32.9458 13.7055 32.947L4.89352 32.9765C3.63069 32.9814 2.61995 32.5244 1.86128 31.6054C1.10261 30.6865 0.827946 29.5877 1.0373 28.309L2.43531 19.6592L2.61842 18.5082H0L0.619815 14.6869H3.2419L3.45155 13.3978L4.82485 4.91648C5.02627 3.66913 5.6586 2.57493 6.72183 1.63389C7.78507 0.692843 8.94658 0.221095 10.2063 0.218639L19.0183 0.18457C20.2812 0.18457 21.291 0.650487 22.0478 1.58232C22.8047 2.51416 23.0818 3.60529 22.8791 4.85571L21.4939 13.3978H16.8769L18.2594 4.87136L9.44646 4.90083L8.06858 13.3978L7.85984 14.6869H36.4171Z" fill="#FFE070"/>
<path d="M87.1068 1.3941C86.35 0.460422 85.3404 -0.00426747 84.0782 2.95278e-05L75.2653 0.0294946C74.0037 0.0344055 72.8422 0.506461 71.7808 1.44566C70.7194 2.38486 70.0877 3.47906 69.8856 4.72826L68.4794 13.3974L68.2706 14.6865H65.6257L65.0059 18.5078H67.6508L67.4677 19.6588L66.0944 28.1208C65.8875 29.4007 66.1622 30.4995 66.9184 31.4172C67.6746 32.3349 68.6851 32.7919 69.9497 32.7883L78.7626 32.7588C79.9943 32.7545 81.147 32.2901 82.2206 31.3656C83.2942 30.4412 83.9351 29.3393 84.1432 28.06L87.9372 4.67209C88.141 3.42044 87.8642 2.32777 87.1068 1.3941ZM79.5244 28.0757L70.7124 28.1051L72.0857 19.6588L72.2688 18.5078H78.9219L79.5418 14.6865H72.8886L73.0973 13.3974L74.5063 4.71261L83.3165 4.68314L79.5244 28.0757Z" fill="#FFE070"/>
<path d="M65.2377 1.60552C64.4809 0.671848 63.4713 0.207158 62.2091 0.211455L53.3962 0.24092C52.1346 0.245831 50.9731 0.717887 49.9117 1.65709C48.8503 2.59629 48.2186 3.69049 48.0166 4.93968L46.6433 13.3971L46.4336 14.6862H43.8308L43.2109 18.5074H45.8156L45.6325 19.6584L44.2253 28.3322C44.0184 29.6121 44.2946 30.7109 45.0539 31.6286C45.8132 32.5463 46.8239 33.0034 48.0861 32.9997L56.8991 32.9702C58.1301 32.9659 59.2828 32.5015 60.357 31.5771C61.4312 30.6526 62.0721 29.5507 62.2796 28.2714L63.6731 19.6584L63.8562 18.5074L64.476 14.6862L64.6847 13.3971L66.0699 4.87983C66.2726 3.63064 65.9952 2.5392 65.2377 1.60552ZM60.0705 13.3971L59.8608 14.6862L59.241 18.5074L59.0579 19.6584L57.658 28.2871L48.846 28.3166L50.2505 19.6612L50.4336 18.5102H58.1341L58.7539 14.689H51.0543L51.263 13.3999L52.6363 4.92863L61.4483 4.89917L60.0705 13.3971Z" fill="#FFE070"/>
</g>
<defs>
<clipPath id="clip0_105_110">
<rect width="88" height="33" fill="white"/>
</clipPath>
</defs>
</svg>
