<svg width="30" height="30" viewBox="0 0 30 30" fill="none" xmlns="http://www.w3.org/2000/svg">
<circle opacity="0.2" cx="15" cy="15" r="14.5" stroke="white"/>
<path d="M8.88873 19.1616C8.88873 19.1638 8.88873 19.1678 8.88623 19.1734C8.88717 19.1697 8.88779 19.1656 8.88873 19.1616ZM20.7469 19.675C20.644 19.6728 20.5424 19.6516 20.4472 19.6125L18.6728 18.9834L18.6597 18.9781C18.621 18.962 18.5794 18.9539 18.5375 18.9544C18.4988 18.9544 18.4605 18.9614 18.4244 18.975C18.3812 18.9913 17.9928 19.1372 17.5853 19.2491C17.3644 19.3097 16.5953 19.5075 15.9781 19.5075C14.4006 19.5075 12.9256 18.9013 11.8253 17.8003C11.2878 17.2661 10.8615 16.6305 10.5713 15.9305C10.281 15.2304 10.1325 14.4797 10.1344 13.7219C10.1343 13.327 10.1769 12.9333 10.2612 12.5475C10.5359 11.2781 11.2634 10.1234 12.3097 9.2975C13.3829 8.45564 14.7078 7.9987 16.0719 8C17.7034 8 19.2237 8.625 20.3531 9.75563C21.4206 10.8266 22.0056 12.2347 22.0009 13.7203C22 14.8242 21.6704 15.9029 21.054 16.8188L21.0481 16.8275L21.025 16.8588C21.0197 16.8659 21.0144 16.8728 21.0094 16.88L21.0047 16.8884C20.9922 16.9096 20.981 16.9314 20.9709 16.9538L21.4628 18.7019C21.4845 18.774 21.4963 18.8488 21.4978 18.9241C21.4979 19.0227 21.4786 19.1204 21.4409 19.2116C21.4032 19.3027 21.3479 19.3856 21.2781 19.4553C21.2084 19.5251 21.1255 19.5804 21.0344 19.6181C20.9432 19.6558 20.8455 19.6751 20.7469 19.675Z" fill="#FFE070"/>
<path d="M16.371 20.2933C16.3387 20.2305 16.2932 20.1754 16.2377 20.1318C16.1823 20.0881 16.118 20.0569 16.0494 20.0402C15.8688 19.9924 15.6581 20.0005 15.4972 19.9887C13.9776 19.883 12.5477 19.2308 11.4716 18.1527C10.5149 17.2014 9.89321 15.9651 9.70002 14.6299C9.65627 14.3255 9.65627 14.2499 9.65627 14.2499C9.65625 14.1484 9.6253 14.0492 9.56756 13.9657C9.50981 13.8821 9.428 13.8182 9.333 13.7823C9.238 13.7464 9.13433 13.7403 9.03577 13.7647C8.93721 13.7892 8.84844 13.8431 8.78127 13.9193C8.78127 13.9193 8.53502 14.1874 8.41877 14.4565C8.09273 15.2077 7.95369 16.0267 8.01356 16.8435C8.07342 17.6602 8.33042 18.4502 8.76252 19.1458C8.84377 19.2812 8.84377 19.3437 8.82564 19.4843C8.74033 19.9252 8.59095 20.703 8.51314 21.1065C8.48738 21.2373 8.49696 21.3726 8.5409 21.4985C8.58485 21.6244 8.66156 21.7363 8.76314 21.8227L8.77752 21.8349C8.91189 21.9416 9.07841 21.9998 9.25002 21.9999C9.34654 22 9.44212 21.981 9.53127 21.944L11.2035 21.2987C11.261 21.2768 11.3246 21.2768 11.3822 21.2987C12.0406 21.5437 12.726 21.6737 13.3753 21.6737C14.1844 21.6744 14.9837 21.4966 15.7163 21.153C15.8869 21.073 16.1538 20.9862 16.31 20.8055C16.3691 20.7355 16.4064 20.6496 16.4173 20.5586C16.4281 20.4675 16.412 20.3753 16.371 20.2933Z" fill="#FFE070"/>
</svg>
