<svg width="20" height="21" viewBox="0 0 20 21" fill="none" xmlns="http://www.w3.org/2000/svg">
<path d="M10.1348 21C15.5832 21 20 16.5101 20 10.9716C20 5.433 15.5832 0.943115 10.1348 0.943115C4.68635 0.943115 0.269531 5.433 0.269531 10.9716C0.269531 16.5101 4.68635 21 10.1348 21Z" fill="#171717"/>
<path d="M4.7834 10.7545L14.2951 7.02646C14.7366 6.86434 15.1222 7.13594 14.9791 7.81453L14.9799 7.8137L13.3604 15.5699C13.2404 16.1198 12.9189 16.2535 12.4692 15.9944L10.0029 14.1467L8.81335 15.3116C8.68181 15.4453 8.57083 15.5582 8.31598 15.5582L8.49109 13.0068L13.062 8.80902C13.2609 8.63101 13.0176 8.53073 12.7553 8.7079L7.10667 12.3232L4.6716 11.551C4.14298 11.3805 4.13147 11.0136 4.7834 10.7545Z" fill="white"/>
</svg>
