<svg width="90" height="90" viewBox="0 0 90 90" fill="none" xmlns="http://www.w3.org/2000/svg">
<circle cx="45" cy="45" r="44.5" stroke="#555555"/>
<path d="M45 49.5625C47.5888 49.5625 49.6875 47.4638 49.6875 44.875C49.6875 42.2862 47.5888 40.1875 45 40.1875C42.4112 40.1875 40.3125 42.2862 40.3125 44.875C40.3125 47.4638 42.4112 49.5625 45 49.5625Z" stroke="white" stroke-width="2" stroke-miterlimit="10"/>
<path d="M29.375 52.6875C31.9638 52.6875 34.0625 50.5888 34.0625 48C34.0625 45.4112 31.9638 43.3125 29.375 43.3125C26.7862 43.3125 24.6875 45.4112 24.6875 48C24.6875 50.5888 26.7862 52.6875 29.375 52.6875Z" stroke="white" stroke-width="2" stroke-miterlimit="10"/>
<path d="M60.625 46.4375C63.2138 46.4375 65.3125 44.3388 65.3125 41.75C65.3125 39.1612 63.2138 37.0625 60.625 37.0625C58.0362 37.0625 55.9375 39.1612 55.9375 41.75C55.9375 44.3388 58.0362 46.4375 60.625 46.4375Z" stroke="white" stroke-width="2" stroke-miterlimit="10"/>
</svg>
