<svg width="99" height="99" viewBox="0 0 99 99" fill="none" xmlns="http://www.w3.org/2000/svg">
<circle cx="49.5" cy="49.5" r="49.5" fill="#FFE070"/>
<path fill-rule="evenodd" clip-rule="evenodd" d="M49.4998 38.7083C46.9455 38.7083 44.8748 40.779 44.8748 43.3333C44.8748 45.8877 46.9455 47.9583 49.4998 47.9583C52.0542 47.9583 54.1248 45.8877 54.1248 43.3333C54.1248 40.779 52.0542 38.7083 49.4998 38.7083ZM41.7915 43.3333C41.7915 39.0761 45.2426 35.625 49.4998 35.625C53.757 35.625 57.2082 39.0761 57.2082 43.3333C57.2082 47.5905 53.757 51.0417 49.4998 51.0417C45.2426 51.0417 41.7915 47.5905 41.7915 43.3333ZM42.4946 56.7866C40.8693 57.5083 40.2498 58.4198 40.2498 59.5208C40.2498 59.8656 40.3111 60.0607 40.3998 60.2022C40.4885 60.3437 40.7002 60.5834 41.2707 60.8415C42.4901 61.3932 44.8996 61.8333 49.4998 61.8333C54.1 61.8333 56.5096 61.3932 57.729 60.8415C58.2995 60.5834 58.5111 60.3437 58.5999 60.2022C58.6885 60.0607 58.7498 59.8656 58.7498 59.5208C58.7498 58.4198 58.1303 57.5083 56.505 56.7866C54.8362 56.0456 52.3861 55.6667 49.4998 55.6667C46.6136 55.6667 44.1635 56.0456 42.4946 56.7866ZM41.2433 53.9686C43.4803 52.9753 46.426 52.5833 49.4998 52.5833C52.5737 52.5833 55.5194 52.9753 57.7564 53.9686C60.0369 54.9813 61.8332 56.7677 61.8332 59.5208C61.8332 60.2403 61.7018 61.0591 61.2123 61.8399C60.7229 62.6206 59.9711 63.2114 58.9999 63.6508C57.1359 64.494 54.1496 64.9167 49.4998 64.9167C44.85 64.9167 41.8638 64.494 39.9998 63.6508C39.0286 63.2114 38.2768 62.6206 37.7874 61.8399C37.2979 61.0591 37.1665 60.2403 37.1665 59.5208C37.1665 56.7677 38.9628 54.9813 41.2433 53.9686Z" fill="#0E0E0E"/>
</svg>
