<svg width="30" height="30" viewBox="0 0 30 30" fill="none" xmlns="http://www.w3.org/2000/svg">
<circle opacity="0.2" cx="15" cy="15" r="14.5" stroke="white"/>
<path d="M21.9333 19.5122C21.784 19.5121 21.6364 19.4826 21.5 19.4256C21.4683 19.4124 21.438 19.3963 21.4097 19.3775L18.6527 17.5581C18.5128 17.4659 18.3987 17.3434 18.32 17.2011C18.2412 17.0589 18.2 16.9009 18.2 16.7406V14.2594C18.2 14.0991 18.2412 13.9411 18.32 13.7989C18.3987 13.6566 18.5128 13.5341 18.6527 13.4419L21.4097 11.6225C21.438 11.6037 21.4683 11.5876 21.5 11.5744C21.6624 11.5067 21.8403 11.4781 22.0174 11.4913C22.1946 11.5044 22.3655 11.5588 22.5145 11.6496C22.6635 11.7404 22.786 11.8646 22.8708 12.0111C22.9556 12.1575 23 12.3215 23 12.4881V18.5119C23 18.7771 22.8876 19.0314 22.6876 19.219C22.4875 19.4065 22.2162 19.5119 21.9333 19.5119V19.5122ZM15.4 20H9.26667C8.6657 19.9994 8.08952 19.7754 7.66457 19.377C7.23962 18.9786 7.00062 18.4384 7 17.875V13.125C7.00062 12.5616 7.23962 12.0214 7.66457 11.623C8.08952 11.2246 8.6657 11.0006 9.26667 11H15.416C16.0127 11.0007 16.5848 11.2232 17.0067 11.6187C17.4286 12.0143 17.666 12.5506 17.6667 13.11V17.875C17.666 18.4384 17.427 18.9786 17.0021 19.377C16.5771 19.7754 16.001 19.9994 15.4 20Z" fill="#FFE070"/>
</svg>
